<svg width="16" height="17" viewBox="0 0 16 17" fill="none" xmlns="http://www.w3.org/2000/svg">
<g clip-path="url(#clip0_61385_198)">
<path d="M7.999 0.365234C3.582 0.365234 0 4.09954 0 8.70616C0 12.3906 2.292 15.5164 5.472 16.6203C5.872 16.6971 6.018 16.4396 6.018 16.2184C6.018 16.02 6.011 15.4956 6.007 14.7998C3.782 15.3035 3.312 13.6814 3.312 13.6814C2.949 12.7177 2.424 12.4612 2.424 12.4612C1.697 11.9441 2.478 11.9545 2.478 11.9545C3.281 12.0137 3.703 12.8143 3.703 12.8143C4.417 14.0885 5.576 13.7209 6.032 13.507C6.104 12.968 6.311 12.6004 6.54 12.3917C4.764 12.1808 2.896 11.4653 2.896 8.27C2.896 7.35927 3.208 6.6147 3.72 6.03108C3.637 5.82027 3.363 4.97185 3.798 3.82435C3.798 3.82435 4.47 3.60004 5.998 4.679C6.636 4.49416 7.32 4.40173 8.001 4.39862C8.68 4.40277 9.365 4.49416 10.004 4.68004C11.531 3.60108 12.202 3.82539 12.202 3.82539C12.638 4.97393 12.364 5.82131 12.282 6.03212C12.795 6.61573 13.104 7.36031 13.104 8.27104C13.104 11.4747 11.234 12.1798 9.452 12.3865C9.739 12.644 9.995 13.1528 9.995 13.9307C9.995 15.046 9.985 15.9453 9.985 16.2184C9.985 16.4417 10.129 16.7013 10.535 16.6192C13.71 15.5143 16 12.3896 16 8.70616C16 4.09954 12.418 0.365234 7.999 0.365234Z" fill="#C4C4CC"/>
</g>
<defs>
<clipPath id="clip0_61385_198">
<rect width="16" height="16.6154" fill="white" transform="translate(0 0.192307)"/>
</clipPath>
</defs>
</svg>
